<svg width="24" height="25" viewBox="0 0 24 25" fill="none" xmlns="http://www.w3.org/2000/svg">
<path fill-rule="evenodd" clip-rule="evenodd" d="M14.3962 11.2999L11.3189 8.22255C10.9284 7.83203 10.9284 7.19886 11.3189 6.80834L11.7047 6.42255C12.0952 6.03203 12.7284 6.03203 13.1189 6.42255L18.8465 12.1501C19.0417 12.3454 19.0417 12.662 18.8465 12.8572L13.1189 18.5848C12.7284 18.9753 12.0952 18.9753 11.7047 18.5848L11.3189 18.199C10.9284 17.8085 10.9284 17.1753 11.3189 16.7848L14.4038 13.6999L4.6 13.6999C4.04772 13.6999 3.6 13.2522 3.6 12.6999L3.6 12.2999C3.6 11.7476 4.04772 11.2999 4.6 11.2999L14.3962 11.2999Z" fill="white"/>
</svg>
